<svg xmlns="http://www.w3.org/2000/svg" xmlns:xlink="http://www.w3.org/1999/xlink" version="1.1" x="0px" y="0px" viewBox="0 0 64 80" style="enable-background:new 0 0 64 64;" xml:space="preserve"><path d="M58.519,32.336C58.824,31.315,59,30.249,59,29.158c0-1.573-0.324-3.099-0.963-4.537l-1.217-2.739  C60.554,20.055,63,16.211,63,12c0-6.065-4.935-11-11-11S41,5.935,41,12c0,0.362,0.023,0.723,0.058,1.083  C39.953,13.025,38.913,13,38,13c-1.754,0-3.453,0.084-5.096,0.22l-1.319-6.593C30.934,3.366,28.047,1,24.721,1H10  C8.346,1,7,2.346,7,4s1.346,3,3,3h14.721c0.476,0,0.888,0.338,0.981,0.804l1.257,6.284c-3.67,0.841-5.651,2.041-5.904,3.575  l-3.092,6.958C17.324,26.059,17,27.585,17,29.158c0,2.386,0.759,4.66,2.142,6.558c-0.084,0.031-0.17,0.055-0.254,0.088l-1.217,0.486  c-1.423,0.569-2.692,1.406-3.774,2.489l-2.367,2.367l-2.921-1.46L1,52.729V63h19.574l7.827-13.417l-1.546-0.773  C28.434,47.641,30.332,47,32.333,47H34v2.394c-3.723,0.763-6,2.489-6,4.606v4c0,2.851,4.299,5,10,5s10-2.149,10-5v-4  c0-2.117-2.277-3.843-6-4.606V47h2.191c2.082,0,4.12-0.577,5.893-1.668l9.019-5.55c1.244-0.766,1.987-2.096,1.987-3.605  C61.09,34.447,60.039,32.968,58.519,32.336z M22.194,20.026C25.218,22.327,33.289,23,38,23s12.782-0.673,15.806-2.974l2.403,5.408  c0.315,0.707,0.524,1.443,0.651,2.194C54.205,25.833,49.483,25,45,25c-5.276,0-11.255,2.15-15.011,4.098  c-3.403-1.993-6.674-3.742-10.034-4.033L22.194,20.026z M47.319,13.75C47.11,13.192,47,12.606,47,12c0-2.757,2.243-5,5-5  s5,2.243,5,5c0,1.882-1.053,3.578-2.683,4.43C53.096,15.126,50.373,14.276,47.319,13.75z M45,27c6.657,0,11.177,1.758,11.89,3.513  c-0.072,0.478-0.19,0.944-0.335,1.401C54.994,33.628,49.911,35,45,35c-4.627,0-8.861-2.293-12.948-4.689  C35.593,28.642,40.579,27,45,27z M45.813,38.789c0.181-0.362,0.276-0.767,0.276-1.171c0-0.221-0.036-0.432-0.087-0.636  c2.894-0.101,6.036-0.63,8.502-1.567c-0.608,0.651-1.305,1.228-2.099,1.691c-2.341,1.365-4.86,2.373-7.47,3.026  C45.266,39.717,45.569,39.277,45.813,38.789z M43,12c0-4.962,4.037-9,9-9s9,4.038,9,9c0,3.421-1.982,6.53-5,8.038l-0.806-1.814  C57.503,17.039,59,14.653,59,12c0-3.86-3.141-7-7-7s-7,3.14-7,7c0,0.488,0.056,0.966,0.153,1.434  c-0.689-0.084-1.379-0.155-2.061-0.213C43.037,12.817,43,12.41,43,12z M38,15c9.743,0,15,2.129,15,3s-5.257,3-15,3  c-1.264,0-2.449-0.037-3.561-0.102l-1.141-5.703C34.817,15.077,36.382,15,38,15z M24.721,5H10C9.448,5,9,4.551,9,4s0.448-1,1-1  h14.721c2.376,0,4.438,1.69,4.903,4.019l2.743,13.716c-0.734-0.072-1.438-0.152-2.089-0.246L27.663,7.412  C27.384,6.014,26.146,5,24.721,5z M27.35,16.042l0.816,4.08C24.78,19.431,23,18.505,23,18C23,17.83,23.792,16.867,27.35,16.042z   M19,29.158c0-0.728,0.094-1.442,0.262-2.139c3.425,0.103,6.995,2.196,10.772,4.425c2.14,1.263,4.315,2.542,6.582,3.556H23.062  c-0.612,0-1.217,0.06-1.815,0.157C19.8,33.489,19,31.382,19,29.158z M19.426,61H3v-7.729l6.392-10.957l16.207,8.104L19.426,61z   M38,61c-4.884,0-8-1.777-8-3v-0.936C31.794,58.255,34.651,59,38,59s6.206-0.745,8-1.936V58C46,59.223,42.884,61,38,61z M42,54  v-2.559c2.606,0.614,4,1.718,4,2.559c0,1.223-3.116,3-8,3s-8-1.777-8-3c0-0.84,1.394-1.945,4-2.559V54h2v-7h4v7H42z M58.054,38.079  l-9.019,5.55C47.578,44.526,45.903,45,44.191,45H32.333c-2.771,0-5.383,1.007-7.439,2.829l-11.48-5.74l1.896-1.896  c0.89-0.89,1.934-1.579,3.103-2.046l1.217-0.486C20.727,37.222,21.882,37,23.062,37h20.409c0.341,0,0.618,0.277,0.618,0.618  c0,0.095-0.022,0.191-0.065,0.276c-0.834,1.668-2.402,2.784-4.207,3.045C39.214,40.978,38.607,41,38,41H25.09v2H39  c0.311,0,0.617-0.028,0.92-0.064c4.745-0.3,9.379-1.703,13.538-4.129c1.885-1.1,3.357-2.728,4.316-4.622  c0.779,0.336,1.316,1.109,1.316,2.04C59.09,36.986,58.702,37.679,58.054,38.079z"/></svg>