<svg xmlns="http://www.w3.org/2000/svg" version="1.1" viewBox="-5.0 -10.0 110.0 135.0">
 <path d="m96.625 31.488c0.25391 0.86328 0.375 1.7188 0.375 2.5391 0 1.9492-0.64844 3.793-1.7617 5.2812l-0.10938 0.13281c-0.54688 0.70312-1.1992 1.3242-1.9375 1.8398 0.95703 1.1523 1.5312 2.6289 1.5312 4.2305 0 1.8008-0.73047 3.4453-1.9102 4.6484l0.070312 0.078125c1.1367 1.1953 1.8359 2.8086 1.8359 4.5703 0 1.7578-0.75781 3.2422-1.8867 4.3711l-0.24219 0.23828 0.31641 0.32031c1.0898 1.1445 1.8086 2.6484 1.8086 4.375 0 1.2773-0.36719 2.4766-1.0039 3.4961 0.50391 0.28906 0.96875 0.64453 1.3789 1.0547 1.1719 1.1641 1.8984 2.7812 1.8984 4.5586 0 4.4883-0.99609 8.8281-3.5156 11.93-2.2148 2.7227-5.5039 4.4414-10.172 4.4414h-66.621c-4.668 0-7.957-1.7188-10.172-4.4414-2.5234-3.1055-3.5156-7.4453-3.5156-11.93 0-1.7773 0.72656-3.3945 1.8945-4.5625l0.125-0.11328c0.47656-0.45312 1.0195-0.83203 1.6133-1.125-0.56641-0.97656-0.88672-2.1055-0.88672-3.3047 0-1.8047 0.74219-3.375 1.9102-4.543l0.12109-0.11328-0.12109-0.11719c-1.168-1.1641-1.9141-2.7266-1.9141-4.5273 0-1.8008 0.73047-3.4453 1.9102-4.6484l-0.070312-0.078125c-1.1367-1.1953-1.8359-2.8086-1.8359-4.5703 0-1.5078 0.51172-2.9023 1.3672-4.0234-0.91797-0.58203-1.7148-1.3242-2.3555-2.1797-1.1133-1.4922-1.7617-3.332-1.7617-5.2812 0-0.82422 0.12109-1.6797 0.375-2.543 2.5352-8.5938 11.32-14.535 22.59-17.859 7.2891-2.1484 15.66-3.2227 24.023-3.2227 8.3633 0.003906 16.738 1.082 24.027 3.2305 11.281 3.3281 20.078 9.2695 22.609 17.852zm-14.633-1.2656c0.51562-0.96875 1.7266-1.3359 2.6953-0.82031s1.3359 1.7266 0.82031 2.6953l-0.94141 1.7656c-0.51562 0.96875-1.7266 1.3359-2.6953 0.82031s-1.3359-1.7266-0.82031-2.6953zm-66.555 0c0.51562-0.96875 1.7266-1.3359 2.6953-0.82031s1.3359 1.7266 0.82031 2.6953l-0.94141 1.7656c-0.51562 0.96875-1.7266 1.3359-2.6953 0.82031s-1.3359-1.7266-0.82031-2.6953zm22.184 0c0.51562-0.96875 1.7266-1.3359 2.6953-0.82031s1.3359 1.7266 0.82031 2.6953l-0.94141 1.7656c-0.51562 0.96875-1.7266 1.3359-2.6953 0.82031s-1.3359-1.7266-0.82031-2.6953zm22.188 0c0.51562-0.96875 1.7266-1.3359 2.6953-0.82031s1.3359 1.7266 0.82031 2.6953l-0.94141 1.7656c-0.51562 0.96875-1.7266 1.3359-2.6953 0.82031s-1.3359-1.7266-0.82031-2.6953zm-12.035-9.3359c-0.51563-0.96875-0.14844-2.1797 0.82031-2.6953s2.1797-0.14844 2.6953 0.82031l0.94141 1.7656c0.51562 0.96875 0.14844 2.1797-0.82031 2.6953s-2.1797 0.14844-2.6953-0.82031zm-19.48 1.7656c-0.51562-0.96875-0.14844-2.1797 0.82031-2.6953s2.1797-0.14844 2.6953 0.82031l0.94141 1.7656c0.51562 0.96875 0.14844 2.1797-0.82031 2.6953s-2.1797 0.14844-2.6953-0.82031zm38.957 0c-0.51562-0.96875-0.14844-2.1797 0.82031-2.6953s2.1797-0.14844 2.6953 0.82031l0.94141 1.7656c0.51562 0.96875 0.14844 2.1797-0.82031 2.6953s-2.1797 0.14844-2.6953-0.82031zm-4.0547 29.512 5.6914 8.5352 10.277-8.5352zm22.207 0-8.2617 6.8555c0.10938 0.007813 0.21875 0.011719 0.32812 0.011719 0.97266 0 1.9336-0.28516 2.6953-0.85547 0.87891-0.66016 2.1289-0.48047 2.7891 0.39844 0.66016 0.87891 0.48047 2.1289-0.39844 2.7891-1.4844 1.1133-3.293 1.668-5.0859 1.668-1.3711 0-2.75-0.32422-3.9883-0.97656l-3.9141 3.25c-0.91406 0.61328-2.1523 0.36719-2.7656-0.54688l-1.5859-2.3789c-1.0547 0.43359-2.1953 0.65234-3.3281 0.64844-1.7969-0.007813-3.5977-0.55859-5.0625-1.6523-0.76953-0.57422-1.7305-0.86328-2.6953-0.86328s-1.9258 0.28906-2.6953 0.86328c-1.4805 1.1094-3.2891 1.6602-5.0859 1.6602-1.7344 0-3.4844-0.52344-4.9414-1.5664l-0.14062-0.09375c-0.76953-0.57422-1.7305-0.86328-2.6992-0.86328-0.96484 0-1.9258 0.28906-2.6953 0.86328-1.4805 1.1094-3.2891 1.6602-5.0859 1.6602-1.7344 0-3.4844-0.52344-4.9414-1.5664l-0.14062-0.09375c-0.76953-0.57422-1.7305-0.86328-2.6953-0.86328-0.96484 0-1.9258 0.28906-2.6953 0.86328-0.88281 0.66016-2.1367 0.47656-2.7969-0.40625s-0.47656-2.1367 0.40625-2.7969c1.4805-1.1055 3.2891-1.6602 5.0859-1.6602 1.7969 0 3.6055 0.55469 5.0859 1.6602l0.097656 0.078125c0.74609 0.52344 1.668 0.78516 2.5938 0.78516 0.96484 0 1.9258-0.28906 2.6953-0.86328 1.4805-1.1055 3.2891-1.6602 5.0859-1.6602s3.6055 0.55469 5.0898 1.6602l0.097656 0.078125c0.74609 0.52344 1.668 0.78516 2.5938 0.78516 0.96484 0 1.9258-0.28906 2.6953-0.86328 1.4805-1.1055 3.2891-1.6602 5.0859-1.6602s3.6055 0.55469 5.0859 1.6602c0.77344 0.57812 1.7227 0.87109 2.6719 0.87109 0.34766 0 0.69141-0.035157 1.0312-0.10938l-4.5117-6.7656h-46.039c-0.71875 0.007812-1.3672 0.30078-1.8359 0.76953-0.48438 0.48047-0.77734 1.1445-0.77734 1.8789 0 0.66406 0.28516 1.2539 0.73047 1.6992 0.50781 0.51562 1.2109 0.85156 1.9531 0.94922 1.0117 0.019531 1.8711 0.80469 1.9531 1.8359 0.089844 1.1016-0.73047 2.0664-1.8281 2.1562-0.76172 0.0625-1.4766 0.375-2 0.86328l-0.078125 0.082032c-0.44922 0.44922-0.73438 1.043-0.73438 1.7148 0 0.73047 0.29688 1.3945 0.76953 1.8711 0.47656 0.47656 1.125 0.76953 1.8438 0.77734h75.746c0.71875-0.007813 1.3672-0.30078 1.8359-0.76953 0.48438-0.48047 0.77734-1.1445 0.77734-1.8789 0-0.60547-0.26562-1.1602-0.66797-1.5938l-0.078126-0.074219c-0.55078-0.55078-1.2852-0.91016-2.0078-0.98828-0.91797-0.046876-1.7109-0.73438-1.8633-1.6797-0.17188-1.0859 0.57031-2.1094 1.6562-2.2812 0.79688-0.12891 1.6445-0.52734 2.2539-1.1367 0.42578-0.41797 0.70703-0.94922 0.70703-1.5469 0-0.69531-0.26562-1.3281-0.69922-1.793l-0.078126-0.074219c-0.47266-0.47266-1.1211-0.76953-1.8359-0.77734h-2.7109zm2.707-9.3008h-75.746c-0.71875 0.007813-1.3672 0.30078-1.8359 0.76953-0.48438 0.48047-0.77734 1.1445-0.77734 1.8789 0 0.69531 0.26562 1.3281 0.69922 1.793l0.078125 0.074218c0.47266 0.47266 1.1211 0.76953 1.8359 0.77734h75.746c0.71875-0.007812 1.3672-0.30078 1.8359-0.76953 0.48438-0.48047 0.77734-1.1445 0.77734-1.8789 0-0.73047-0.29688-1.3945-0.76953-1.8711-0.47656-0.47656-1.125-0.76953-1.8438-0.77734zm2.4336 27.898h-81.086c-0.64062 0-1.2266 0.24609-1.6602 0.64453l-0.074219 0.078125c-0.44531 0.44531-0.72266 1.0586-0.72266 1.7344 0 3.6602 0.73828 7.1133 2.6094 9.4141 1.4727 1.8125 3.7539 2.957 7.0781 2.957h66.621c3.3242 0 5.6055-1.1445 7.0781-2.957 1.8711-2.3047 2.6094-5.7539 2.6094-9.4141 0-0.67578-0.27734-1.293-0.72266-1.7344-0.44141-0.44922-1.0547-0.72266-1.7344-0.72266zm2.457-36.734c0-0.47266-0.066406-0.94922-0.20312-1.418-2.1016-7.1172-9.8633-12.184-19.906-15.145-6.9375-2.0469-14.918-3.0742-22.902-3.0742-7.9805 0-15.965 1.0195-22.898 3.0664-10.027 2.957-17.781 8.0234-19.883 15.152-0.13672 0.46484-0.20312 0.94531-0.20312 1.418 0 1.0664 0.35547 2.0781 0.96484 2.8906 0.60938 0.81641 1.4766 1.4453 2.4961 1.7461 0.43359 0.12891 0.91016 0.19531 1.418 0.19531h76.316c0.48438-0.007813 0.93359-0.078125 1.3477-0.19531 0.98047-0.28906 1.8203-0.87891 2.4258-1.6445l0.070313-0.10156c0.60938-0.81641 0.96484-1.8242 0.96484-2.8906z"/>
</svg>