<svg xmlns="http://www.w3.org/2000/svg" xmlns:xlink="http://www.w3.org/1999/xlink" version="1.1" x="0px" y="0px" viewBox="0 0 492 615" style="enable-background:new 0 0 492 492;" xml:space="preserve"><style type="text/css">
	.st0{fill-rule:evenodd;clip-rule:evenodd;}
</style><g><g><g><path class="st0" d="M347.8,418.7H144.7c-1.9,0-3.6-0.9-4.7-2.4c-1.1-1.5-1.4-3.5-0.8-5.2l7.2-21c2.1-6.2,8.5-24.9,26.5-24.9     h146.8c18,0,24.4,18.8,26.5,24.9l7.2,21c0.6,1.8,0.3,3.7-0.8,5.2C351.4,417.8,349.7,418.7,347.8,418.7L347.8,418.7z M152.7,407.2     h187.1l-4.6-13.4c-5.2-15.2-11-17.1-15.6-17.1H172.9c-4.5,0-10.4,1.9-15.6,17.1L152.7,407.2z"/></g><g><path class="st0" d="M290.1,376.7c-3.2,0-5.8-2.6-5.8-5.8c0-3.2,2.6-5.8,5.8-5.8c5,0,9-4,9-9v-14.8c0-3.2,2.6-5.8,5.8-5.8     s5.8,2.6,5.8,5.8v14.8C310.6,367.4,301.4,376.7,290.1,376.7L290.1,376.7z M202.4,376.7c-11.3,0-20.5-9.2-20.5-20.5v-14.8     c0-3.2,2.6-5.8,5.8-5.8s5.8,2.6,5.8,5.8v14.8c0,5,4,9,9,9c3.2,0,5.8,2.6,5.8,5.8C208.2,374.1,205.6,376.7,202.4,376.7z"/></g><g><path class="st0" d="M407.9,347.1H84.6c-12.5,0-22.7-10.2-22.7-22.7s10.2-22.7,22.7-22.7h323.3c12.5,0,22.7,10.2,22.7,22.7     S420.4,347.1,407.9,347.1L407.9,347.1z M84.6,313.3c-6.1,0-11.1,5-11.1,11.1s5,11.1,11.1,11.1h323.3c6.1,0,11.1-5,11.1-11.1     s-5-11.1-11.1-11.1H84.6z"/></g><g><path class="st0" d="M378.9,313.3c-3.2,0-5.8-2.6-5.8-5.8V188.8c0-3.2,2.6-5.8,5.8-5.8c3.2,0,5.8,2.6,5.8,5.8v118.8     C384.7,310.8,382.1,313.3,378.9,313.3L378.9,313.3z M124.5,313.3c-3.2,0-5.8-2.6-5.8-5.8V188.8c0-3.2,2.6-5.8,5.8-5.8     c3.2,0,5.8,2.6,5.8,5.8v118.8C130.3,310.8,127.7,313.3,124.5,313.3z"/></g><g><path class="st0" d="M365.9,257.2c-8.4,0-16.7-3.1-26.5-7.9c-2.9-1.4-4.1-4.8-2.7-7.7s4.8-4.1,7.7-2.7c7.2,3.5,14.9,6.7,21.5,6.7     c3.3,0,6.8-0.8,10.9-2.4c3-1.2,6.3,0.3,7.5,3.2c1.2,3-0.3,6.3-3.2,7.5C375.6,256.2,370.6,257.2,365.9,257.2L365.9,257.2z      M253.9,257.2c-10.7,0-21.3-5.3-31.6-10.4c-9.5-4.7-18.5-9.2-26.5-9.2c-7.8,0-15.7,4.4-24.1,9.1c-9.3,5.2-18.9,10.5-29.7,10.5     c-5.7,0-12-1.5-19.6-4.7c-2.9-1.2-4.3-4.6-3.1-7.5c1.2-2.9,4.6-4.3,7.5-3.1c6.2,2.6,11,3.8,15.1,3.8c7.8,0,15.7-4.4,24.1-9.1     c9.3-5.2,18.9-10.5,29.7-10.5c10.7,0,21.3,5.3,31.6,10.4c9.5,4.7,18.5,9.2,26.5,9.2c7.8,0,15.7-4.4,24.1-9.1     c9.3-5.2,18.9-10.5,29.7-10.5c2.9,0,6,0.4,9.3,1.2c3.1,0.8,5,3.9,4.2,7s-3.9,5-7,4.2c-2.4-0.6-4.5-0.9-6.5-0.9     c-7.8,0-15.7,4.4-24.1,9.1C274.3,251.9,264.7,257.2,253.9,257.2z"/></g><g><path class="st0" d="M365.9,293.1c-10.7,0-21.3-5.3-31.6-10.4c-9.5-4.7-18.5-9.2-26.5-9.2c-7.8,0-15.7,4.4-24.1,9.1     c-9.3,5.2-18.9,10.5-29.7,10.5c-10.7,0-21.3-5.3-31.6-10.4c-9.5-4.7-18.5-9.2-26.5-9.2c-7.8,0-15.7,4.4-24.1,9.1     c-9.3,5.2-18.9,10.5-29.7,10.5c-5.7,0-12-1.5-19.6-4.7c-2.9-1.2-4.3-4.6-3.1-7.5c1.2-2.9,4.6-4.3,7.5-3.1     c6.2,2.6,11,3.8,15.1,3.8c7.8,0,15.7-4.4,24.1-9.1c9.3-5.2,18.9-10.5,29.7-10.5c10.7,0,21.3,5.3,31.6,10.4     c9.5,4.7,18.5,9.2,26.5,9.2c7.8,0,15.7-4.4,24.1-9.1c9.3-5.2,18.9-10.5,29.7-10.5c10.7,0,21.3,5.3,31.6,10.4     c9.5,4.7,18.5,9.2,26.5,9.2c3.3,0,6.8-0.8,10.9-2.4c3-1.2,6.3,0.3,7.5,3.2c1.2,3-0.3,6.3-3.2,7.5     C375.6,292,370.6,293.1,365.9,293.1z"/></g><g><path class="st0" d="M330.2,255.6c-11.2,0-20.3-8.9-20.3-19.7v-29.4c0-4.8-2.2-8.8-6.6-11.9h-36.1V218c0,9.8-8.2,17.9-18.3,17.9     c-10.1,0-18.3-8-18.3-17.9v-23.4H124.5c-2.9,0-5.3-2.1-5.7-5c-0.4-2.8,1.4-5.6,4.1-6.3l133.4-37.6c3.1-0.9,6.2,0.9,7.1,4     s-0.9,6.2-4,7.1L166.2,183h69.7c2.7,0,5.1,1.9,5.6,4.5c0.3,1.6,0.5,3.3,0.5,5V218c0,3.5,3.1,6.3,6.8,6.3c3.8,0,6.8-2.8,6.8-6.3     v-25.5c0-1.7,0.2-3.4,0.5-5c0.6-2.6,2.9-4.5,5.6-4.5h43.2c1.1,0,2.1,0.3,3.1,0.9c8.7,5.5,13.3,13.3,13.3,22.6v29.4     c0,4.5,3.9,8.2,8.8,8.2c4.8,0,8.8-3.7,8.8-8.2v-29.4c0-9.3,4.6-17.1,13.3-22.6c0.9-0.6,2-0.9,3.1-0.9h17.2     c-3.4-15.6-20.7-31.1-49.5-44.2l-9.2,2.6c-3.1,0.9-6.2-0.9-7.1-4s0.9-6.2,4-7.1l11.2-3.2c1.3-0.4,2.7-0.3,3.9,0.3     c38.5,17.1,58.8,38.3,58.8,61.3c0,3.2-2.6,5.8-5.8,5.8h-21.9c-4.4,3.2-6.6,7.1-6.6,11.9v29.4     C350.5,246.8,341.3,255.6,330.2,255.6z"/></g><g><path class="st0" d="M285.1,177.5c-18.7,0-34-15.3-34-34s15.2-34,34-34s34,15.3,34,34S303.8,177.5,285.1,177.5L285.1,177.5z      M285.1,121c-12.4,0-22.5,10.1-22.5,22.5s10.1,22.5,22.5,22.5s22.5-10.1,22.5-22.5S297.5,121,285.1,121z"/></g><g><path class="st0" d="M283.9,136.7c-2.9,0-5.4-2.2-5.7-5.1c-0.1-0.5-1.4-12.3,2.9-25.1c4.1-12.2,14-27.6,38.2-31.7     c3.1-0.5,6.1,1.6,6.6,4.7s-1.6,6.1-4.7,6.6c-35.4,5.9-31.7,42.5-31.5,44.1c0.4,3.2-1.9,6-5.1,6.4     C284.4,136.7,284.2,136.7,283.9,136.7z"/></g></g></g></svg>