<svg xmlns="http://www.w3.org/2000/svg" data-name="Layer 1" viewBox="0 0 96 120" x="0px" y="0px"><path d="M78.36,65.524c8,0,12.958-7.173,12.958-13.818a10.247,10.247,0,0,0-2.507-7.085,8.741,8.741,0,0,0-6.641-2.777h-.531c.167-1.707.258-3.5.258-5.386a1.2,1.2,0,0,0-1.2-1.2H30.346a1.2,1.2,0,0,0-1.2,1.2c0,14.428,5.224,23.98,9.11,29.09l-.7.063a5.289,5.289,0,0,0-1.9-1.028l-2.5-.755a5.264,5.264,0,0,0-.691-.854l-3.145-3.145a5.222,5.222,0,0,0-1.2-.9l-.8-2.681a5.277,5.277,0,0,0-1.029-1.9l.237-2.606a4.584,4.584,0,0,0-1.466-3.791l2.44-4.6a4.578,4.578,0,0,0-3.14-6.638A9.436,9.436,0,0,0,16.866,38.1a14.036,14.036,0,0,0-4.5,5.918A4.548,4.548,0,0,0,8.216,46.31a11.065,11.065,0,0,0-1.125,8.411,5.235,5.235,0,0,0-2.274,3.637A13.435,13.435,0,0,0,8.472,69.58a6.5,6.5,0,0,0-.693,5.783,14.532,14.532,0,0,0,9.158,9.263,6.5,6.5,0,0,0,5.846-.8,13.432,13.432,0,0,0,8.839,3.4,14.153,14.153,0,0,0,1.933-.135,5.237,5.237,0,0,0,3.636-2.272,12.013,12.013,0,0,0,2.9.368A11.007,11.007,0,0,0,45.6,83.7a4.552,4.552,0,0,0,2.289-4.147,17.262,17.262,0,0,0,3.857-2.321H69a1.2,1.2,0,0,0,.53-.123l14.155-6.987a1.2,1.2,0,0,0-.53-2.271H70.239c.628-.63,1.342-1.4,2.1-2.324Zm3.81-21.285c4.1,0,6.753,2.931,6.753,7.467,0,5.493-4.038,11.423-10.563,11.423H74.153c.251-.36.5-.733.754-1.124.163-.253.328-.517.494-.788H78.36c5.9,0,8.651-5.676,8.651-9.511,0-3.478-1.81-5.555-4.841-5.555H81.035q.173-.935.314-1.912Zm-1.635,4.307H82.17c.669,0,2.446,0,2.446,3.16,0,2.869-1.988,7.116-6.256,7.116H76.753A44.378,44.378,0,0,0,80.535,48.546ZM79.49,37.655q-.034,1.536-.148,2.985H31.7c-.074-.969-.125-1.962-.147-2.985ZM23.907,39.066a2.146,2.146,0,0,1,1.533,1.2,2.177,2.177,0,0,1-.043,1.971l-2.443,4.608-8.2-2.286C16.913,40.01,19.846,38.261,23.907,39.066ZM10.3,47.494a2.173,2.173,0,0,1,2.482-1l9.779,2.725a2.195,2.195,0,0,1,1.6,2.313l-.114,1.254a5.272,5.272,0,0,0-2.363-.277l-12.2,1.341c-.045,0-.089.014-.134.02A8.609,8.609,0,0,1,10.3,47.494ZM7.189,58.683a2.877,2.877,0,0,1,2.554-2.456l12.2-1.341a2.9,2.9,0,0,1,3.1,2.053l.406,1.357a5.226,5.226,0,0,0-2.8.926L10.2,67.817l-.055.04A10.969,10.969,0,0,1,7.189,58.683ZM17.73,82.366a12.084,12.084,0,0,1-7.7-7.814,4.1,4.1,0,0,1,1.526-4.764L24,61.192a2.846,2.846,0,0,1,3.631.33l3.145,3.145a2.847,2.847,0,0,1,.33,3.631L22.457,80.827A4.107,4.107,0,0,1,17.73,82.366Zm15.5,2.358a10.849,10.849,0,0,1-8.757-2.6L33.08,69.659a5.231,5.231,0,0,0,.927-3.075l.966.292a2.9,2.9,0,0,1,2.054,3.1l-1.341,12.2A2.877,2.877,0,0,1,33.23,84.724Zm11.189-3.108a8.609,8.609,0,0,1-6.373.95c.006-.045.015-.089.02-.134l1.341-12.2a5.273,5.273,0,0,0-.278-2.363l1.255-.114a2.192,2.192,0,0,1,2.312,1.6l2.726,9.779A2.174,2.174,0,0,1,44.419,81.616Zm2.939-4.455-2.286-8.2,4.608-2.443a2.174,2.174,0,0,1,1.971-.043,2.146,2.146,0,0,1,1.2,1.533C53.653,72.067,51.9,75,47.358,77.161Zm21.364-2.326H53.95a8.9,8.9,0,0,0,1.468-4.593H78.026ZM55.251,67.848c-.018-.1-.034-.2-.055-.308a4.578,4.578,0,0,0-6.638-3.14l-4.6,2.44a4.58,4.58,0,0,0-2.75-1.438,42.518,42.518,0,0,1-9.268-22.367H79.1A42.191,42.191,0,0,1,72.963,60.6a30.219,30.219,0,0,1-6.3,7.246ZM45.258,26.671a3.257,3.257,0,0,0,0-5.336,5.591,5.591,0,0,1,0-8.7,3.446,3.446,0,0,0,1.389-2.667,1.2,1.2,0,1,1,2.394,0,5.723,5.723,0,0,1-2.079,4.35,3.446,3.446,0,0,0-1.389,2.667,3.444,3.444,0,0,0,1.389,2.668,5.592,5.592,0,0,1,0,8.7,3.446,3.446,0,0,0-1.389,2.668,1.2,1.2,0,0,1-2.394,0A5.727,5.727,0,0,1,45.258,26.671Zm9.413,0a3.257,3.257,0,0,0,0-5.336,5.591,5.591,0,0,1,0-8.7A3.446,3.446,0,0,0,56.06,9.967a1.2,1.2,0,1,1,2.394,0,5.723,5.723,0,0,1-2.079,4.35,3.446,3.446,0,0,0-1.389,2.667,3.444,3.444,0,0,0,1.389,2.668,5.592,5.592,0,0,1,0,8.7,3.446,3.446,0,0,0-1.389,2.668,1.2,1.2,0,0,1-2.394,0A5.727,5.727,0,0,1,54.671,26.671Zm9.413,0a3.257,3.257,0,0,0,0-5.336,5.591,5.591,0,0,1,0-8.7,3.446,3.446,0,0,0,1.389-2.667,1.2,1.2,0,1,1,2.394,0,5.723,5.723,0,0,1-2.079,4.35A3.446,3.446,0,0,0,64.4,16.984a3.444,3.444,0,0,0,1.389,2.668,5.592,5.592,0,0,1,0,8.7A3.446,3.446,0,0,0,64.4,31.022a1.2,1.2,0,0,1-2.394,0A5.727,5.727,0,0,1,64.084,26.671Z"/></svg>